<svg xmlns="http://www.w3.org/2000/svg" viewBox="0 0 32 32" id="Access"><path fill="#f9795f" d="M20 14h-8a1 1 0 0 1-1-1V9a5 5 0 0 1 10 0 1 1 0 0 1-2 0 3 3 0 0 0-6 0v3h7a1 1 0 0 1 0 2Z" class="color5f7cf9 svgShape"></path><path fill="#ed5d40" d="M19 9a1 1 0 0 0 2 0 5 5 0 0 0-5-5v2a3 3 0 0 1 3 3Z" class="color4062ed svgShape"></path><path fill="#ff8066" d="M21 13a1 1 0 0 0-1-1h-4v2h4a1 1 0 0 0 1-1Z" class="color8c9eff svgShape"></path><rect width="18" height="16" x="7" y="12" fill="#ff8066" rx="1" ry="1" class="color8c9eff svgShape"></rect><path fill="#f9795f" d="M24 12h-8v16h8a1 1 0 0 0 1-1V13a1 1 0 0 0-1-1Z" class="color5f7cf9 svgShape"></path><path fill="#ff8066" d="M18 21h-4a1 1 0 0 1 0-2h4a1 1 0 0 1 0 2Z" class="color8c9eff svgShape"></path><path fill="#f9795f" d="M18 19h-2v2h2a1 1 0 0 0 0-2Z" class="color5f7cf9 svgShape"></path></svg>