<svg xmlns="http://www.w3.org/2000/svg" data-name="Layer 1" viewBox="0 0 32 32" id="bricks"><rect width="7" height="4" x=".5" y="19.5" fill="#ff6947" class="colored6649 svgShape"></rect><path fill="#ff6947" d="M13.5,19.5h7a1,1,0,0,1,1,1v3a0,0,0,0,1,0,0h-8a0,0,0,0,1,0,0v-4A0,0,0,0,1,13.5,19.5Z" class="colored6649 svgShape"></path><rect width="6" height="4" x="7.5" y="19.5" fill="#ff6947" class="colored6649 svgShape"></rect><rect width="6" height="4" x="4.5" y="23.5" fill="#ff6947" class="colored6649 svgShape"></rect><rect width="4" height="4" x=".5" y="23.5" fill="#ff6947" class="colored6649 svgShape"></rect><path fill="#ff6947" d="M17.5,23.5h6a1,1,0,0,1,1,1v3a0,0,0,0,1,0,0h-7a0,0,0,0,1,0,0v-4A0,0,0,0,1,17.5,23.5Z" class="colored6649 svgShape"></path><rect width="7" height="4" x="10.5" y="23.5" fill="#ff6947" class="colored6649 svgShape"></rect><rect width="7" height="4" x="7.5" y="27.5" fill="#ff6947" class="colored6649 svgShape"></rect><rect width="7" height="4" x=".5" y="27.5" fill="#ff6947" class="colored6649 svgShape"></rect><path fill="#ff6947" d="M20.5,27.5h6a1,1,0,0,1,1,1v3a0,0,0,0,1,0,0h-7a0,0,0,0,1,0,0v-4A0,0,0,0,1,20.5,27.5Z" class="colored6649 svgShape"></path><rect width="6" height="4" x="14.5" y="27.5" fill="#ff6947" class="colored6649 svgShape"></rect><path fill="#dcd9d8" d="M14.7,15.026l3.419-5.963a1,1,0,0,1,1.575-.21l2.862,2.862a1,1,0,0,1-.264,1.6l-6.281,3.1A1,1,0,0,1,14.7,15.026Z" class="colord8d9dc svgShape"></path><path fill="#918a88" d="M29.932,1.537h0a1.5,1.5,0,0,1,0,2.121L26.457,7.133a1,1,0,0,1-1.414,0l-.707-.707a1,1,0,0,1,0-1.414l3.475-3.475A1.5,1.5,0,0,1,29.932,1.537Z" class="color8b8891 svgShape"></path><path d="M26.5 27H25V24.5A1.5 1.5 0 0 0 23.5 23H22V20.5A1.5 1.5 0 0 0 20.5 19H.5a.5.5 0 0 0-.5.5v12a.5.5 0 0 0 .5.5h27a.5.5 0 0 0 .5-.5v-3A1.5 1.5 0 0 0 26.5 27zM24 24.5V27H18V24h5.5A.5.5 0 0 1 24 24.5zM11 27V24h6v3zM5 27V24h5v3zM1 27V24H4v3zm20-6.5V23H14V20h6.5A.5.5 0 0 1 21 20.5zM13 23H8V20h5zM1 20H7v3H1zm0 8H7v3H1zm7 0h6v3H8zm7 0h5v3H15zm12 3H21V28h5.5a.5.5 0 0 1 .5.5zM30.285 1.184a2.046 2.046 0 0 0-2.828 0L23.982 4.659a1.5 1.5 0 0 0 0 2.121L21.154 9.609 20.045 8.5a1.5 1.5 0 0 0-2.361.314l-3.419 5.963a1.507 1.507 0 0 0 1.291 2.252 1.519 1.519 0 0 0 .675-.161l6.281-3.1a1.505 1.505 0 0 0 .815-1.1 1.487 1.487 0 0 0-.42-1.3l-1.046-1.046 2.828-2.829a1.5 1.5 0 0 0 2.121 0l3.475-3.475A2 2 0 0 0 30.285 1.184zM22.2 12.069a.5.5 0 0 1-.132.8l-6.281 3.1a.5.5 0 0 1-.655-.7l3.419-5.962a.5.5 0 0 1 .787-.1zm7.378-8.764L26.1 6.78a.5.5 0 0 1-.707 0l-.707-.707a.5.5 0 0 1 0-.707l3.475-3.475a1 1 0 0 1 1.414 0h0A1 1 0 0 1 29.578 3.305z" fill="#000000" class="color000000 svgShape"></path></svg>